<?xml version="1.0" standalone="no"?>
<!DOCTYPE svg PUBLIC "-//W3C//DTD SVG 20010904//EN"
 "http://www.w3.org/TR/2001/REC-SVG-20010904/DTD/svg10.dtd">
<svg version="1.0" xmlns="http://www.w3.org/2000/svg"
 width="16.000000pt" height="16.000000pt" viewBox="0 0 16.000000 16.000000"
 preserveAspectRatio="xMidYMid meet">
<metadata>
Created by potrace 1.11, written by Peter Selinger 2001-2013
</metadata>
<g transform="translate(0.000000,16.000000) scale(0.002286,-0.002286)"
fill="#000000" stroke="none">
<path d="M3270 6994 c-675 -61 -1202 -242 -1722 -591 -511 -342 -915 -805
-1187 -1358 -178 -361 -279 -698 -337 -1120 -25 -183 -26 -655 -1 -840 91
-679 335 -1254 755 -1782 114 -144 339 -373 346 -353 2 8 213 1041 467 2295
254 1254 466 2290 470 2303 8 22 11 22 193 22 102 0 187 -3 189 -7 4 -7 -101
-742 -117 -825 -5 -25 -2 -28 20 -28 17 0 65 32 147 98 865 694 1276 892 1849
892 312 0 572 -60 768 -177 134 -79 274 -239 359 -411 49 -97 99 -256 122
-388 40 -230 36 -604 -10 -844 -10 -52 -177 -882 -370 -1844 -193 -962 -349
-1752 -346 -1754 7 -7 191 80 320 151 1149 635 1854 1867 1812 3167 -30 893
-373 1702 -992 2339 -563 578 -1291 938 -2095 1036 -128 16 -541 28 -640 19z"/>
<path d="M4015 5270 c-479 -76 -1036 -421 -1648 -1020 l-127 -125 -350 -1745
c-193 -960 -349 -1754 -348 -1764 5 -35 322 -219 546 -317 685 -299 1428 -374
2164 -218 57 12 104 22 105 23 7 6 711 3491 745 3686 82 478 60 821 -68 1077
-103 207 -272 327 -539 385 -104 22 -385 32 -480 18z"/>
</g>
</svg>
