<?xml version="1.0" encoding="utf-8"?>
<!-- Generator: Adobe Illustrator 19.1.0, SVG Export Plug-In . SVG Version: 6.00 Build 0)  -->
<svg version="1.1" xmlns="http://www.w3.org/2000/svg" xmlns:xlink="http://www.w3.org/1999/xlink" x="0px" y="0px"
	 viewBox="0 0 400 400" style="enable-background:new 0 0 400 400;" xml:space="preserve">
<style type="text/css">
	.st0{fill:#01579B;}
	.st1{fill:none;}
	.st2{fill:#FFFFFF;}
</style>
<g id="Layer_2">
	<circle class="st0" cx="200" cy="200" r="200"/>
</g>
<g id="Layer_1">
	<g>
		<rect x="28.7" y="-73.4" class="st1" width="583.8" height="473.4"/>
		<path class="st2" d="M117.8,81.9h22.1l-7.1,49.4h2.6c19.5-16.5,38.1-30.1,55.9-40.9c17.8-10.8,36.4-16.3,55.9-16.3
			c26.9,0,45.9,6.9,57.2,20.8c11.3,13.9,16.9,32.3,16.9,55.3c0,7.8-0.3,14.5-1,20.1c-0.7,5.6-2.1,13-4.2,22.1l-40.3,201.5h-26.6
			l40.3-197.6c1.7-9.5,3-17.1,3.9-22.8c0.9-5.6,1.3-11.5,1.3-17.5c0-19.5-4.3-34-13-43.6c-8.7-9.5-23-14.3-42.9-14.3
			c-13.9,0-29.9,5.1-48.1,15.3c-18.2,10.2-39,27-62.4,50.4L82,393.9H54.7L117.8,81.9z"/>
	</g>
	<g>
	</g>
	<g>
	</g>
	<g>
	</g>
	<g>
	</g>
	<g>
	</g>
	<g>
	</g>
	<g>
	</g>
	<g>
	</g>
	<g>
	</g>
	<g>
	</g>
	<g>
	</g>
	<g>
	</g>
	<g>
	</g>
	<g>
	</g>
	<g>
	</g>
</g>
</svg>
