<?xml version="1.0" encoding="utf-8"?>
<!-- Generator: Adobe Illustrator 19.1.0, SVG Export Plug-In . SVG Version: 6.00 Build 0)  -->
<svg version="1.1" id="Layer_2" xmlns="http://www.w3.org/2000/svg" xmlns:xlink="http://www.w3.org/1999/xlink" x="0px" y="0px"
	 viewBox="0 0 400 400" style="enable-background:new 0 0 400 400;" xml:space="preserve">
<style type="text/css">
	.st0{fill:#01579B;}
	.st1{fill:#FFFFFF;}
</style>
<path class="st0" d="M400,200c0,82.9-50.5,154.1-122.3,184.4c-9.2,3.9-18.7,6.6-28.5,9.6h0c-15.7,4-32.2,6-49.1,6
	c-41.6,0-80.4-12.7-112.4-34.5c-6.2-4.2-11.9-8.8-17.7-13.7c-1.9-1.6-3.9-3.3-5.9-5v0C25,310.3-0.1,258.1-0.1,200
	C-0.1,89.5,89.5,0,199.9,0S400,89.5,400,200z"/>
<path class="st1" d="M304.3,94.9c-11.3-13.9-30.3-20.8-57.2-20.8c-19.5,0-38.1,5.3-55.9,16.1C173.5,101,154.8,115,135.3,131h-2.6
	l7.2-49h-22.1L64,346.9v0c2,1.7,4,3.4,5.9,5c5.8,4.9,11.5,9.5,17.7,13.7l40.5-201.7c23.4-23.4,44.2-40.2,62.4-50.4
	c18.2-10.2,34.2-15.3,48.1-15.3c19.9,0,34.2,4.8,42.9,14.3c8.7,9.5,13,24,13,43.5c0,6.1-0.4,11.9-1.3,17.6
	c-0.9,5.6-2.2,13.3-3.9,22.8L249.1,394h0c9.8-3,19.4-5.7,28.5-9.6l38.4-192c2.2-9.1,3.6-16.5,4.2-22.1c0.6-5.6,1-12.4,1-20.2
	C321.2,127.2,315.6,108.8,304.3,94.9z"/>
<g>
</g>
<g>
</g>
<g>
</g>
<g>
</g>
<g>
</g>
<g>
</g>
<g>
</g>
<g>
</g>
<g>
</g>
<g>
</g>
<g>
</g>
<g>
</g>
<g>
</g>
<g>
</g>
<g>
</g>
</svg>
